<svg xmlns="http://www.w3.org/2000/svg" viewBox="0 0 512 512" role="img" aria-labelledby="title">
  <title id="title">Fields of Fire Turn Aid</title>
  <rect width="512" height="512" rx="96" fill="#24372f"/>
  <path fill="#f4f0e8" d="M116 118h280v54H116zM116 226h280v54H116zM116 334h280v54H116z"/>
  <path fill="#9fc7ab" d="M106 106h72v78h-72zM106 214h72v78h-72zM106 322h72v78h-72z"/>
  <path fill="#24372f" d="m127 145 17 17 39-45 18 16-56 64-37-36zM127 253l17 17 39-45 18 16-56 64-37-36zM127 361l17 17 39-45 18 16-56 64-37-36z"/>
</svg>
